<mxfile host="Electron" modified="2025-03-27T08:24:10.321Z" agent="Mozilla/5.0 (Windows NT 10.0; Win64; x64) AppleWebKit/537.36 (KHTML, like Gecko) draw.io/22.1.21 Chrome/120.0.6099.109 Electron/28.1.0 Safari/537.36" etag="V0A1aPVSJbHe-Mg3DoBt" version="22.1.21" type="device">
  <diagram id="C5RBs43oDa-KdzZeNtuy" name="Page-1">
    <mxGraphModel dx="738" dy="821" grid="1" gridSize="10" guides="1" tooltips="1" connect="1" arrows="1" fold="1" page="1" pageScale="1" pageWidth="827" pageHeight="1169" math="0" shadow="0">
      <root>
        <mxCell id="WIyWlLk6GJQsqaUBKTNV-0" />
        <mxCell id="WIyWlLk6GJQsqaUBKTNV-1" parent="WIyWlLk6GJQsqaUBKTNV-0" />
        <mxCell id="dI0bmMLSZPAImDIH7HAx-0" value="User Data (transactions CSV)" style="rounded=1;whiteSpace=wrap;html=1;" parent="WIyWlLk6GJQsqaUBKTNV-1" vertex="1">
          <mxGeometry x="110" y="90" width="120" height="60" as="geometry" />
        </mxCell>
        <mxCell id="WcZId6oUYf4qufTKCIpf-0" value="Peer Data (pre-collected anonymized CSV)" style="rounded=1;whiteSpace=wrap;html=1;" vertex="1" parent="WIyWlLk6GJQsqaUBKTNV-1">
          <mxGeometry x="270" y="90" width="120" height="60" as="geometry" />
        </mxCell>
        <mxCell id="WcZId6oUYf4qufTKCIpf-1" value="Market Data API&lt;br&gt;(e.g., Inflation rates)" style="rounded=1;whiteSpace=wrap;html=1;" vertex="1" parent="WIyWlLk6GJQsqaUBKTNV-1">
          <mxGeometry x="430" y="90" width="120" height="60" as="geometry" />
        </mxCell>
        <mxCell id="WcZId6oUYf4qufTKCIpf-2" value="" style="rounded=0;whiteSpace=wrap;html=1;" vertex="1" parent="WIyWlLk6GJQsqaUBKTNV-1">
          <mxGeometry x="80" y="190" width="510" height="470" as="geometry" />
        </mxCell>
        <mxCell id="WcZId6oUYf4qufTKCIpf-18" style="edgeStyle=orthogonalEdgeStyle;rounded=0;orthogonalLoop=1;jettySize=auto;html=1;exitX=0.5;exitY=1;exitDx=0;exitDy=0;" edge="1" parent="WIyWlLk6GJQsqaUBKTNV-1" source="WcZId6oUYf4qufTKCIpf-3" target="WcZId6oUYf4qufTKCIpf-13">
          <mxGeometry relative="1" as="geometry" />
        </mxCell>
        <mxCell id="WcZId6oUYf4qufTKCIpf-3" value="Transaction Categorizer (Rule-based or ML)" style="rounded=1;whiteSpace=wrap;html=1;" vertex="1" parent="WIyWlLk6GJQsqaUBKTNV-1">
          <mxGeometry x="110" y="250" width="120" height="60" as="geometry" />
        </mxCell>
        <mxCell id="WcZId6oUYf4qufTKCIpf-19" style="edgeStyle=orthogonalEdgeStyle;rounded=0;orthogonalLoop=1;jettySize=auto;html=1;entryX=0.5;entryY=0;entryDx=0;entryDy=0;" edge="1" parent="WIyWlLk6GJQsqaUBKTNV-1" source="WcZId6oUYf4qufTKCIpf-4" target="WcZId6oUYf4qufTKCIpf-13">
          <mxGeometry relative="1" as="geometry" />
        </mxCell>
        <mxCell id="WcZId6oUYf4qufTKCIpf-4" value="Peer Comparison Engine (K-Means Clustering)" style="rounded=1;whiteSpace=wrap;html=1;" vertex="1" parent="WIyWlLk6GJQsqaUBKTNV-1">
          <mxGeometry x="270" y="250" width="120" height="60" as="geometry" />
        </mxCell>
        <mxCell id="WcZId6oUYf4qufTKCIpf-20" style="edgeStyle=orthogonalEdgeStyle;rounded=0;orthogonalLoop=1;jettySize=auto;html=1;" edge="1" parent="WIyWlLk6GJQsqaUBKTNV-1" source="WcZId6oUYf4qufTKCIpf-5" target="WcZId6oUYf4qufTKCIpf-14">
          <mxGeometry relative="1" as="geometry" />
        </mxCell>
        <mxCell id="WcZId6oUYf4qufTKCIpf-5" value="Market Trend Analyzer (API fetcher + adjustment calc)" style="rounded=1;whiteSpace=wrap;html=1;" vertex="1" parent="WIyWlLk6GJQsqaUBKTNV-1">
          <mxGeometry x="430" y="250" width="120" height="60" as="geometry" />
        </mxCell>
        <mxCell id="WcZId6oUYf4qufTKCIpf-9" style="edgeStyle=orthogonalEdgeStyle;rounded=0;orthogonalLoop=1;jettySize=auto;html=1;exitX=0.5;exitY=1;exitDx=0;exitDy=0;entryX=0.176;entryY=0.002;entryDx=0;entryDy=0;entryPerimeter=0;" edge="1" parent="WIyWlLk6GJQsqaUBKTNV-1" source="dI0bmMLSZPAImDIH7HAx-0" target="WcZId6oUYf4qufTKCIpf-2">
          <mxGeometry relative="1" as="geometry" />
        </mxCell>
        <mxCell id="WcZId6oUYf4qufTKCIpf-10" style="edgeStyle=orthogonalEdgeStyle;rounded=0;orthogonalLoop=1;jettySize=auto;html=1;exitX=0.5;exitY=1;exitDx=0;exitDy=0;entryX=0.488;entryY=-0.002;entryDx=0;entryDy=0;entryPerimeter=0;" edge="1" parent="WIyWlLk6GJQsqaUBKTNV-1" source="WcZId6oUYf4qufTKCIpf-0" target="WcZId6oUYf4qufTKCIpf-2">
          <mxGeometry relative="1" as="geometry" />
        </mxCell>
        <mxCell id="WcZId6oUYf4qufTKCIpf-11" style="edgeStyle=orthogonalEdgeStyle;rounded=0;orthogonalLoop=1;jettySize=auto;html=1;exitX=0.5;exitY=1;exitDx=0;exitDy=0;entryX=0.804;entryY=0;entryDx=0;entryDy=0;entryPerimeter=0;" edge="1" parent="WIyWlLk6GJQsqaUBKTNV-1" source="WcZId6oUYf4qufTKCIpf-1" target="WcZId6oUYf4qufTKCIpf-2">
          <mxGeometry relative="1" as="geometry" />
        </mxCell>
        <mxCell id="WcZId6oUYf4qufTKCIpf-12" value="Data Processing" style="text;strokeColor=none;fillColor=none;align=center;verticalAlign=middle;spacingLeft=4;spacingRight=4;overflow=hidden;points=[[0,0.5],[1,0.5]];portConstraint=eastwest;rotatable=0;whiteSpace=wrap;html=1;" vertex="1" parent="WIyWlLk6GJQsqaUBKTNV-1">
          <mxGeometry x="270" y="200" width="120" height="30" as="geometry" />
        </mxCell>
        <mxCell id="WcZId6oUYf4qufTKCIpf-21" style="edgeStyle=orthogonalEdgeStyle;rounded=0;orthogonalLoop=1;jettySize=auto;html=1;entryX=0.5;entryY=0;entryDx=0;entryDy=0;" edge="1" parent="WIyWlLk6GJQsqaUBKTNV-1" source="WcZId6oUYf4qufTKCIpf-13" target="WcZId6oUYf4qufTKCIpf-15">
          <mxGeometry relative="1" as="geometry" />
        </mxCell>
        <mxCell id="WcZId6oUYf4qufTKCIpf-13" value="Spending Pattern Analysis" style="rounded=1;whiteSpace=wrap;html=1;" vertex="1" parent="WIyWlLk6GJQsqaUBKTNV-1">
          <mxGeometry x="160" y="395" width="120" height="60" as="geometry" />
        </mxCell>
        <mxCell id="WcZId6oUYf4qufTKCIpf-23" style="edgeStyle=orthogonalEdgeStyle;rounded=0;orthogonalLoop=1;jettySize=auto;html=1;exitX=0.5;exitY=1;exitDx=0;exitDy=0;entryX=0.5;entryY=0;entryDx=0;entryDy=0;" edge="1" parent="WIyWlLk6GJQsqaUBKTNV-1" source="WcZId6oUYf4qufTKCIpf-14" target="WcZId6oUYf4qufTKCIpf-15">
          <mxGeometry relative="1" as="geometry" />
        </mxCell>
        <mxCell id="WcZId6oUYf4qufTKCIpf-14" value="Inflation-Adjusted Benchmarks" style="rounded=1;whiteSpace=wrap;html=1;" vertex="1" parent="WIyWlLk6GJQsqaUBKTNV-1">
          <mxGeometry x="380" y="395" width="120" height="60" as="geometry" />
        </mxCell>
        <mxCell id="WcZId6oUYf4qufTKCIpf-24" style="edgeStyle=orthogonalEdgeStyle;rounded=0;orthogonalLoop=1;jettySize=auto;html=1;exitX=0.5;exitY=1;exitDx=0;exitDy=0;entryX=0.5;entryY=0;entryDx=0;entryDy=0;" edge="1" parent="WIyWlLk6GJQsqaUBKTNV-1" source="WcZId6oUYf4qufTKCIpf-15" target="WcZId6oUYf4qufTKCIpf-16">
          <mxGeometry relative="1" as="geometry" />
        </mxCell>
        <mxCell id="WcZId6oUYf4qufTKCIpf-15" value="Recommendation&amp;nbsp; Generator" style="rounded=1;whiteSpace=wrap;html=1;" vertex="1" parent="WIyWlLk6GJQsqaUBKTNV-1">
          <mxGeometry x="270" y="540" width="120" height="60" as="geometry" />
        </mxCell>
        <mxCell id="WcZId6oUYf4qufTKCIpf-16" value="Structured Output (JSON/dictionary with insights)" style="rounded=1;whiteSpace=wrap;html=1;" vertex="1" parent="WIyWlLk6GJQsqaUBKTNV-1">
          <mxGeometry x="251.25" y="690" width="157.5" height="90" as="geometry" />
        </mxCell>
      </root>
    </mxGraphModel>
  </diagram>
</mxfile>
